<svg width="545" height="138" viewBox="0 0 545 138" fill="none" xmlns="http://www.w3.org/2000/svg">
<path d="M442.263 97.9943L441.272 96.3596C436.771 98.8477 431.642 100.162 426.441 100.162H422.423C413.765 100.072 406.749 93.3266 406.749 85.036V51.0525C406.749 42.7067 413.858 35.9184 422.594 35.9184V35.9107H426.441C431.616 35.9107 436.722 37.2139 441.207 39.6775L442.194 38.039C437.41 35.4095 431.962 34.0203 426.441 34.0203H418.747C401.231 34.0203 386.98 47.6314 386.98 64.3617V64.3706V71.7102V71.7192C386.98 88.4494 401.231 102.061 418.747 102.061H422.594V102.052H426.441C431.989 102.052 437.461 100.649 442.263 97.9943Z" fill="#333333"/>
<path d="M72.293 10.0091V102.061H89.303V0.000103546L72.293 10.0091Z" fill="#333333"/>
<path d="M134.342 100.221H127.217C126.607 100.221 125.997 100.168 125.399 100.128C119.457 97.8911 115.197 92.1622 115.197 85.4716V68.9789L161.596 51.9785L161.048 51.0294C155.007 40.5382 143.759 34.0203 131.702 34.0203C113.902 34.0203 99.3033 47.8654 97.9456 65.3848L97.8086 72.5356C97.8086 88.8144 111 102.061 127.217 102.061H134.342C139.474 102.061 144.544 100.695 148.991 98.1112L148.069 96.5205C143.909 98.9416 139.163 100.221 134.342 100.221ZM115.197 52.35C115.197 45.0228 120.304 38.1309 127.13 36.2237C128.625 36.0086 130.145 35.8599 131.702 35.8599C142.738 35.8599 153.064 41.6362 158.893 51.0093L115.197 67.0206V52.35Z" fill="#333333"/>
<path d="M36.5338 100.221H29.4089C28.7985 100.221 28.1882 100.168 27.5903 100.128C21.6487 97.8911 17.3887 92.1622 17.3887 85.4716V68.9789L63.7878 51.9785L63.2398 51.0294C57.1986 40.5382 45.9506 34.0203 33.8931 34.0203C16.0933 34.0203 1.49469 47.8654 0.136969 65.3848L0 72.5356C0 88.8144 13.191 102.061 29.4089 102.061H36.5338C41.6657 102.061 46.7354 100.695 51.1823 98.1112L50.2605 96.5205C46.1001 98.9416 41.3543 100.221 36.5338 100.221ZM17.3887 52.35C17.3887 45.0228 22.4958 38.1309 29.3218 36.2237C30.8165 36.0086 32.3361 35.8599 33.8931 35.8599C44.9292 35.8599 55.2554 41.6362 61.0849 51.0093L17.3887 67.0206V52.35Z" fill="#333333"/>
<path d="M210.113 94.7178H187.914C180.967 94.7178 176.68 86.5739 181.102 81.2091C181.275 80.9972 181.484 80.8125 181.681 80.6179C184.884 81.8202 188.432 82.5088 192.177 82.5088H203.264C217.258 82.5088 228.615 73.1675 228.615 61.6446V54.8853C228.615 43.3624 217.258 34.0211 203.264 34.0211H192.177C178.17 34.0211 166.825 43.3624 166.825 54.8853V61.6446C166.825 68.1107 170.397 73.8881 176.015 77.7156L173.551 78.276C169.855 79.1186 166.85 82.0653 166.381 85.8225C165.692 91.1898 169.868 95.7847 175.128 95.7847H177.998H196.685C207.353 95.7847 216.654 103.779 217.455 114.412C217.492 114.886 217.516 115.358 217.516 115.825C217.59 126.078 208.881 134.251 198.619 134.251H195.638V136.082C202.598 136.053 210.039 136.016 210.039 136.016C217.726 136.016 224.945 131.768 228.246 124.817C234.96 110.688 224.23 94.7178 210.113 94.7178ZM185.722 46.5172C185.722 40.2999 191.105 35.2592 197.769 35.2592C204.422 35.2592 209.817 40.2999 209.817 46.5172V70.0127C209.817 76.23 204.422 81.2707 197.769 81.2707C191.105 81.2707 185.722 76.23 185.722 70.0127V46.5172Z" fill="#333333"/>
<path d="M376.37 51.6243C372.247 39.9186 363.382 34.0114 351.164 34.0203C340.244 34.0291 330.951 40.8909 327.118 50.5116V34.0203L310.436 44.1253V102.061H327.118V59.6506C327.244 52.6257 330.674 45.8574 335.566 41.4953C342.602 35.2214 353.824 36.4491 358.238 44.7915C359.335 46.855 359.953 49.2068 359.953 51.7065L359.94 101.882H378.476V69.2157C378.476 63.6132 377.442 54.6702 376.37 51.6243Z" fill="#333333"/>
<path d="M450.768 102.061H469.804L469.804 45.7988L460.286 50.1018L450.768 54.7166L450.768 102.061Z" fill="#333333"/>
<path d="M469.805 34.0202H460.286H450.768L450.768 46.9299L460.286 42.6269L469.805 38.0122L469.805 34.0202Z" fill="#333333"/>
<path d="M284.227 34.0203H283.16V34.0277C283.108 34.0277 283.058 34.0203 283.006 34.0203H275.699H257.952C252.619 34.0203 247.638 36.3778 244.288 40.4876L245.948 41.8165C248.891 38.2061 253.266 36.1337 257.952 36.1337C258.029 36.1349 275.623 36.1362 275.698 36.1374C279.841 36.2607 283.16 39.6258 283.16 43.7581V57.9619C278.732 53.994 272.914 51.5593 266.527 51.5593V51.573C266.453 51.573 266.381 51.5593 266.307 51.5593H260.815C248.313 51.5593 238.143 61.6346 238.143 74.0202V74.0264V79.4601V79.4663C238.143 91.8519 248.313 101.927 260.816 101.927H263.561V101.922H266.307C266.381 101.922 266.453 101.907 266.527 101.907V101.938C272.914 101.938 278.732 99.4962 283.16 95.5147V102.061H301.93V84.5227V52.7686V51.5593C301.93 41.8726 294.004 34.0203 284.227 34.0203ZM268.941 100.417C268.936 100.417 268.932 100.417 268.928 100.418C268.366 100.475 267.793 100.488 267.22 100.505C266.914 100.512 266.609 100.524 266.307 100.524H263.437C257.259 100.456 252.252 95.4611 252.252 89.3263V64.1691C252.252 57.9906 257.325 52.9641 263.561 52.9641V52.9579H266.307C266.405 52.9579 266.502 52.9604 266.599 52.9616C273.053 52.9803 278.901 55.6181 283.16 59.8649V93.5843C279.422 97.333 274.469 99.8487 268.941 100.417Z" fill="#333333"/>
<path d="M526.619 34.0203H525.552V34.0277C525.501 34.0277 525.45 34.0203 525.399 34.0203H518.092H500.345C495.012 34.0203 490.031 36.3778 486.68 40.4876L488.341 41.8165C491.284 38.2061 495.659 36.1337 500.345 36.1337C500.421 36.1349 518.015 36.1362 518.091 36.1374C522.233 36.2607 525.552 39.6258 525.552 43.7581V57.9619C521.124 53.994 515.306 51.5593 508.92 51.5593V51.573C508.846 51.573 508.774 51.5593 508.7 51.5593H503.207C490.706 51.5593 480.535 61.6346 480.535 74.0202V74.0264V79.4601V79.4663C480.535 91.8519 490.706 101.927 503.208 101.927H505.954V101.922H508.7C508.774 101.922 508.846 101.907 508.92 101.907V101.938C515.306 101.938 521.124 99.4962 525.552 95.5147V102.061H544.323V84.5227V52.7686V51.5593C544.323 41.8726 536.397 34.0203 526.619 34.0203ZM511.333 100.417C511.328 100.417 511.325 100.417 511.321 100.418C510.759 100.475 510.186 100.488 509.612 100.505C509.307 100.512 509.001 100.524 508.7 100.524H505.83C499.652 100.456 494.644 95.4611 494.644 89.3263V64.1691C494.644 57.9906 499.717 52.9641 505.954 52.9641V52.9579H508.7C508.798 52.9579 508.895 52.9604 508.991 52.9616C515.446 52.9803 521.294 55.6181 525.552 59.8649V93.5843C521.815 97.333 516.861 99.8487 511.333 100.417Z" fill="#333333"/>
<path d="M541.492 117.863C540.842 117.592 540.125 117.375 539.34 117.213C538.583 117.051 537.581 116.97 536.337 116.97C534.956 116.97 533.86 117.321 533.049 118.025C532.237 118.702 531.831 119.473 531.831 120.339C531.831 121.205 532.21 121.99 532.967 122.693C533.725 123.397 535.2 124.006 537.392 124.52C539.34 124.953 540.842 125.508 541.898 126.184C542.98 126.861 543.738 127.632 544.171 128.498C544.604 129.337 544.82 130.27 544.82 131.299C544.82 132.3 544.563 133.261 544.049 134.181C543.562 135.074 542.75 135.818 541.614 136.413C540.504 136.982 539.016 137.266 537.148 137.266C534.496 137.266 532.047 136.643 529.801 135.399C529.449 135.182 529.273 134.884 529.273 134.506C529.273 134.262 529.368 134.032 529.558 133.816C529.747 133.599 529.991 133.491 530.288 133.491C530.451 133.491 530.613 133.531 530.775 133.613C532.697 134.695 534.821 135.236 537.148 135.236C538.989 135.236 540.382 134.857 541.329 134.1C542.304 133.315 542.791 132.381 542.791 131.299C542.791 130.162 542.331 129.215 541.411 128.457C540.518 127.7 539.043 127.064 536.986 126.549C535.065 126.062 533.576 125.508 532.521 124.885C531.493 124.263 530.775 123.559 530.369 122.774C529.991 121.99 529.801 121.124 529.801 120.176C529.801 119.31 530.045 118.485 530.532 117.7C531.046 116.888 531.79 116.225 532.764 115.711C533.739 115.197 534.929 114.94 536.337 114.94C537.825 114.94 539.016 115.062 539.909 115.305C540.829 115.522 541.79 115.833 542.791 116.239C543.224 116.401 543.44 116.712 543.44 117.173C543.44 117.443 543.332 117.687 543.116 117.903C542.926 118.093 542.696 118.187 542.425 118.187C542.371 118.187 542.29 118.174 542.182 118.147C542.074 118.093 541.844 117.998 541.492 117.863Z" fill="#725A3E"/>
<path d="M521.611 136.9C521.151 136.9 520.84 136.684 520.678 136.251C520.407 135.52 520.082 134.708 519.704 133.815C519.325 132.922 518.919 131.989 518.486 131.014H507.039C506.66 131.989 506.294 132.922 505.943 133.815C505.618 134.681 505.32 135.48 505.05 136.21C504.968 136.427 504.833 136.603 504.644 136.738C504.454 136.846 504.251 136.9 504.035 136.9C503.791 136.9 503.561 136.806 503.345 136.616C503.155 136.4 503.061 136.143 503.061 135.845C503.061 135.764 503.074 135.655 503.101 135.52C503.155 135.358 503.277 135.047 503.466 134.586C503.927 133.369 504.468 131.975 505.09 130.405C505.74 128.836 506.43 127.199 507.16 125.494C507.891 123.789 508.635 122.07 509.393 120.338C510.151 118.607 510.881 116.969 511.585 115.427C511.774 115.021 512.099 114.818 512.559 114.818H512.722C513.209 114.818 513.533 115.007 513.696 115.386C514.426 116.956 515.198 118.647 516.01 120.46C516.849 122.273 517.66 124.073 518.445 125.859C519.23 127.618 519.947 129.269 520.597 130.811C521.246 132.327 521.774 133.585 522.18 134.586C522.396 135.074 522.518 135.398 522.545 135.561C522.599 135.723 522.626 135.831 522.626 135.885C522.626 136.156 522.518 136.4 522.301 136.616C522.112 136.806 521.882 136.9 521.611 136.9ZM517.633 128.985C516.849 127.172 516.023 125.318 515.157 123.424C514.291 121.529 513.452 119.73 512.64 118.025C511.883 119.757 511.084 121.57 510.245 123.464C509.434 125.331 508.649 127.172 507.891 128.985H517.633Z" fill="#725A3E"/>
<path d="M484.814 136.9C484.543 136.9 484.299 136.806 484.083 136.616C483.894 136.4 483.799 136.156 483.799 135.886V116.198C483.799 115.9 483.894 115.657 484.083 115.467C484.299 115.278 484.543 115.183 484.814 115.183C485.111 115.183 485.355 115.278 485.544 115.467C485.734 115.657 485.828 115.9 485.828 116.198V134.871H495.814C496.112 134.871 496.355 134.965 496.545 135.155C496.734 135.344 496.829 135.588 496.829 135.886C496.829 136.156 496.734 136.4 496.545 136.616C496.355 136.806 496.112 136.9 495.814 136.9H484.814Z" fill="#725A3E"/>
<path d="M464.573 136.9C464.303 136.9 464.059 136.806 463.843 136.616C463.653 136.4 463.559 136.156 463.559 135.886V116.198C463.559 115.9 463.653 115.657 463.843 115.467C464.059 115.278 464.303 115.183 464.573 115.183C464.871 115.183 465.115 115.278 465.304 115.467C465.494 115.657 465.588 115.9 465.588 116.198V134.871H475.574C475.872 134.871 476.115 134.965 476.305 135.155C476.494 135.344 476.589 135.588 476.589 135.886C476.589 136.156 476.494 136.4 476.305 136.616C476.115 136.806 475.872 136.9 475.574 136.9H464.573Z" fill="#725A3E"/>
<path d="M453.77 135.886C453.77 136.156 453.675 136.4 453.486 136.616C453.296 136.806 453.053 136.9 452.755 136.9C452.484 136.9 452.241 136.806 452.024 136.616C451.835 136.4 451.74 136.156 451.74 135.886V116.198C451.74 115.9 451.835 115.657 452.024 115.467C452.241 115.278 452.484 115.183 452.755 115.183C453.053 115.183 453.296 115.278 453.486 115.467C453.675 115.657 453.77 115.9 453.77 116.198V135.886Z" fill="#725A3E"/>
<path d="M434.094 137.306C433.689 137.306 433.35 137.049 433.08 136.535C432.755 135.913 432.308 135.006 431.74 133.815C431.172 132.598 430.536 131.245 429.832 129.756C429.156 128.241 428.466 126.712 427.762 125.169C427.085 123.627 426.463 122.192 425.895 120.866C425.354 119.513 424.934 118.417 424.636 117.578C424.528 117.281 424.433 116.997 424.352 116.726C424.271 116.455 424.23 116.266 424.23 116.158C424.23 115.914 424.312 115.684 424.474 115.468C424.636 115.251 424.893 115.143 425.245 115.143C425.462 115.143 425.665 115.21 425.854 115.346C426.044 115.454 426.165 115.616 426.22 115.833C426.49 116.699 426.869 117.754 427.356 118.999C427.843 120.217 428.384 121.516 428.98 122.896C429.575 124.276 430.184 125.67 430.806 127.077C431.429 128.457 432.024 129.756 432.593 130.974C433.161 132.165 433.661 133.193 434.094 134.059C434.636 132.949 435.272 131.623 436.002 130.081C436.733 128.511 437.464 126.874 438.194 125.169C438.952 123.464 439.656 121.8 440.305 120.176C440.982 118.553 441.523 117.118 441.929 115.873C442.091 115.413 442.429 115.183 442.944 115.183C443.214 115.183 443.444 115.292 443.634 115.508C443.823 115.698 443.918 115.941 443.918 116.239C443.918 116.32 443.877 116.482 443.796 116.726C443.742 116.969 443.62 117.348 443.431 117.863C443.079 118.783 442.619 119.906 442.051 121.232C441.509 122.558 440.901 123.978 440.224 125.494C439.574 127.009 438.911 128.498 438.235 129.959C437.558 131.42 436.936 132.746 436.368 133.937C435.799 135.128 435.339 136.075 434.988 136.779C434.825 137.13 434.527 137.306 434.094 137.306Z" fill="#725A3E"/>
<path d="M395.957 136.9C395.686 136.9 395.442 136.805 395.226 136.616C395.036 136.399 394.942 136.156 394.942 135.885V129.065C394.482 128.47 393.873 127.631 393.115 126.549C392.357 125.466 391.559 124.303 390.72 123.058C389.908 121.813 389.123 120.622 388.366 119.486C387.635 118.349 387.067 117.429 386.661 116.725C386.58 116.563 386.539 116.387 386.539 116.198C386.539 115.954 386.62 115.738 386.783 115.548C386.945 115.332 387.189 115.223 387.513 115.223C387.919 115.223 388.203 115.372 388.366 115.67C388.745 116.292 389.245 117.104 389.868 118.105C390.517 119.08 391.207 120.122 391.938 121.231C392.696 122.341 393.426 123.41 394.13 124.438C394.861 125.466 395.483 126.346 395.997 127.076C396.565 126.292 397.188 125.385 397.864 124.357C398.568 123.301 399.272 122.232 399.975 121.15C400.679 120.04 401.328 119.012 401.924 118.065C402.546 117.091 403.033 116.292 403.385 115.67C403.547 115.372 403.832 115.223 404.237 115.223C404.887 115.223 405.212 115.548 405.212 116.198C405.212 116.387 405.171 116.563 405.09 116.725C404.684 117.402 404.129 118.295 403.426 119.404C402.749 120.487 402.005 121.651 401.193 122.895C400.381 124.113 399.596 125.277 398.839 126.386C398.108 127.496 397.486 128.416 396.971 129.147V135.885C396.971 136.156 396.877 136.399 396.687 136.616C396.498 136.805 396.254 136.9 395.957 136.9Z" fill="#725A3E"/>
<path d="M380.183 136.9C379.885 136.9 379.628 136.779 379.412 136.535L372.795 128.822H367.356V135.886C367.356 136.156 367.261 136.4 367.072 136.616C366.882 136.806 366.639 136.9 366.341 136.9C366.07 136.9 365.827 136.806 365.61 136.616C365.421 136.4 365.326 136.156 365.326 135.886V116.198C365.326 115.9 365.421 115.657 365.61 115.467C365.827 115.278 366.07 115.183 366.341 115.183H372.308C373.905 115.183 375.271 115.481 376.408 116.076C377.572 116.672 378.465 117.484 379.087 118.512C379.737 119.513 380.061 120.677 380.061 122.003C380.061 123.464 379.655 124.79 378.844 125.981C378.059 127.172 376.827 127.997 375.15 128.457L380.954 135.236C381.117 135.398 381.198 135.615 381.198 135.886C381.198 136.129 381.103 136.359 380.914 136.576C380.724 136.792 380.481 136.9 380.183 136.9ZM367.356 117.213V126.793H372.308C374.175 126.793 375.596 126.333 376.57 125.413C377.545 124.466 378.032 123.329 378.032 122.003C378.032 120.569 377.49 119.419 376.408 118.553C375.353 117.659 373.986 117.213 372.308 117.213H367.356Z" fill="#725A3E"/>
<path d="M340.231 128.214C340.231 130.46 340.867 132.192 342.139 133.409C343.438 134.627 345.102 135.236 347.132 135.236C349.378 135.236 351.11 134.627 352.327 133.409C353.572 132.165 354.195 130.392 354.195 128.092V116.198C354.195 115.9 354.289 115.657 354.479 115.467C354.695 115.278 354.939 115.183 355.209 115.183C355.507 115.183 355.751 115.278 355.94 115.467C356.13 115.657 356.224 115.9 356.224 116.198V128.092C356.224 131.042 355.426 133.315 353.829 134.911C352.26 136.481 350.027 137.266 347.132 137.266C344.507 137.266 342.355 136.481 340.677 134.911C339.027 133.342 338.201 131.109 338.201 128.214V116.198C338.201 115.9 338.296 115.657 338.485 115.467C338.702 115.278 338.945 115.183 339.216 115.183C339.514 115.183 339.757 115.278 339.947 115.467C340.136 115.657 340.231 115.9 340.231 116.198V128.214Z" fill="#725A3E"/>
<path d="M329.668 136.9C329.344 136.9 329.073 136.752 328.857 136.454C328.261 135.588 327.301 134.343 325.975 132.719C324.649 131.096 323.214 129.337 321.672 127.442C320.237 129.228 318.871 130.933 317.572 132.557C316.3 134.154 315.272 135.466 314.487 136.494C314.297 136.765 314.027 136.9 313.675 136.9C313.404 136.9 313.161 136.806 312.944 136.616C312.755 136.4 312.66 136.156 312.66 135.886C312.66 135.669 312.728 135.466 312.863 135.277C313.675 134.167 314.744 132.773 316.07 131.096C317.423 129.418 318.844 127.659 320.332 125.819C319.006 124.168 317.721 122.558 316.476 120.988C315.231 119.391 314.189 117.984 313.35 116.766C313.242 116.631 313.188 116.455 313.188 116.239C313.188 115.941 313.283 115.698 313.472 115.508C313.689 115.292 313.919 115.183 314.162 115.183C314.541 115.183 314.839 115.332 315.055 115.63C315.84 116.794 316.814 118.12 317.978 119.608C319.169 121.096 320.386 122.639 321.631 124.236C322.876 122.639 324.053 121.096 325.163 119.608C326.299 118.12 327.246 116.794 328.004 115.63C328.167 115.332 328.451 115.183 328.857 115.183C329.127 115.183 329.357 115.292 329.547 115.508C329.763 115.698 329.871 115.928 329.871 116.198C329.871 116.442 329.817 116.631 329.709 116.766C328.951 117.957 327.964 119.351 326.746 120.948C325.528 122.544 324.256 124.181 322.93 125.859C324.013 127.158 325.041 128.43 326.015 129.675C327.016 130.893 327.909 131.989 328.694 132.963C329.479 133.937 330.074 134.722 330.48 135.317C330.616 135.507 330.683 135.696 330.683 135.886C330.683 136.156 330.575 136.4 330.359 136.616C330.169 136.806 329.939 136.9 329.668 136.9Z" fill="#725A3E"/>
<path d="M289.11 128.214C289.11 130.46 289.746 132.192 291.018 133.409C292.317 134.627 293.981 135.236 296.01 135.236C298.257 135.236 299.989 134.627 301.206 133.409C302.451 132.165 303.074 130.392 303.074 128.092V116.198C303.074 115.9 303.168 115.657 303.358 115.467C303.574 115.278 303.818 115.183 304.088 115.183C304.386 115.183 304.63 115.278 304.819 115.467C305.008 115.657 305.103 115.9 305.103 116.198V128.092C305.103 131.042 304.305 133.315 302.708 134.911C301.139 136.481 298.906 137.266 296.01 137.266C293.385 137.266 291.234 136.481 289.556 134.911C287.905 133.342 287.08 131.109 287.08 128.214V116.198C287.08 115.9 287.175 115.657 287.364 115.467C287.581 115.278 287.824 115.183 288.095 115.183C288.393 115.183 288.636 115.278 288.826 115.467C289.015 115.657 289.11 115.9 289.11 116.198V128.214Z" fill="#725A3E"/>
<path d="M268.925 136.9C268.654 136.9 268.411 136.806 268.194 136.616C268.005 136.4 267.91 136.156 267.91 135.886V116.198C267.91 115.9 268.005 115.657 268.194 115.467C268.411 115.278 268.654 115.183 268.925 115.183C269.223 115.183 269.466 115.278 269.656 115.467C269.845 115.657 269.94 115.9 269.94 116.198V134.871H279.926C280.223 134.871 280.467 134.965 280.656 135.155C280.846 135.344 280.94 135.588 280.94 135.886C280.94 136.156 280.846 136.4 280.656 136.616C280.467 136.806 280.223 136.9 279.926 136.9H268.925Z" fill="#725A3E"/>
</svg>
